<svg width="24" height="24" viewBox="0 0 24 24" fill="none" xmlns="http://www.w3.org/2000/svg">
<path fill-rule="evenodd" clip-rule="evenodd" d="M8.25 15.5C11.5637 15.5 14.25 13.0376 14.25 10C14.25 6.96243 11.5637 4.5 8.25 4.5C4.93629 4.5 2.25 6.96243 2.25 10C2.25 11.7584 3.16104 13.3242 4.56834 14.3314L3.75 16.5L6.1558 15.2971C6.81844 15.4287 7.51909 15.5 8.25 15.5ZM6.5 9.5C6.77614 9.5 7 9.27614 7 9C7 8.72386 6.77614 8.5 6.5 8.5C6.22386 8.5 6 8.72386 6 9C6 9.27614 6.22386 9.5 6.5 9.5ZM10.5 9.5C10.7761 9.5 11 9.27614 11 9C11 8.72386 10.7761 8.5 10.5 8.5C10.2239 8.5 10 8.72386 10 9C10 9.27614 10.2239 9.5 10.5 9.5Z" fill="currentColor"/>
<path d="M16.5 19.5C19.2614 19.5 21.5 17.4853 21.5 15C21.5 12.5147 19.2614 10.5 16.5 10.5C16.1402 10.5 15.7891 10.5348 15.4502 10.6011C15.8236 11.2359 16.05 11.9723 16.05 12.75C16.05 15.5114 13.5876 17.75 10.5 17.75C9.72126 17.75 8.98064 17.5855 8.31804 17.2917C8.69612 18.5925 10.1581 19.5 12 19.5C12.5457 19.5 13.0612 19.4449 13.5358 19.3451L15.5 20.5L14.7335 18.7279C15.7725 18.0649 16.5 16.9205 16.5 15.625" fill="currentColor"/>
</svg>
